<?xml version="1.0" standalone="no"?>
<!DOCTYPE svg PUBLIC "-//W3C//DTD SVG 20010904//EN"
 "http://www.w3.org/TR/2001/REC-SVG-20010904/DTD/svg10.dtd">
<svg version="1.0" xmlns="http://www.w3.org/2000/svg"
 width="771.000000pt" height="771.000000pt" viewBox="0 0 771.000000 771.000000"
 preserveAspectRatio="xMidYMid meet">

<g transform="translate(0.000000,771.000000) scale(0.100000,-0.100000)"
fill="#000000" stroke="none">
<path d="M1580 5847 l0 -792 770 -770 770 -770 0 -355 -1 -355 -32 39 c-18 22
-188 242 -379 489 l-348 450 0 110 0 111 -384 383 c-211 211 -386 383 -390
383 -3 0 -6 -283 -6 -630 l0 -630 497 -642 c273 -354 558 -722 632 -818 74
-96 259 -335 410 -530 151 -195 387 -501 525 -679 l251 -325 3 1665 2 1664
-772 775 -773 775 3 228 2 227 380 0 380 0 0 -473 0 -472 390 -390 390 -390 0
1258 0 1257 -1160 0 -1160 0 0 -793z"/>
<path d="M4246 6624 c-9 -23 -7 -6092 2 -6098 4 -2 124 147 267 332 143 185
316 408 385 497 l125 160 5 1263 5 1263 290 -226 c160 -125 291 -231 293 -235
2 -5 -10 -27 -27 -50 l-30 -42 -1 -629 c0 -346 4 -629 8 -629 5 0 65 73 134
163 69 89 293 378 497 642 l371 480 0 160 0 160 -186 145 c-102 80 -190 151
-196 158 -8 9 30 12 186 12 l196 0 -2 1243 -3 1242 -1156 3 c-1048 2 -1157 1
-1163 -14z m1544 -1234 l0 -460 -380 0 -380 0 0 460 0 460 380 0 380 0 0 -460z"/>
</g>
</svg>
